<svg width="698.1px" height="124.1px" xmlns="http://www.w3.org/2000/svg" viewBox="-99.04372558593747 12.969335937499999 698.0874511718749 124.061328125" style="background-color: rgba(0, 0, 0, 0)" preserveAspectRatio="xMidYMid"><defs><filter id="editing-raise" x="-100%" y="-100%" width="300%" height="300%"><feFlood flood-color="#ccc" result="flood-surface"></feFlood><feFlood flood-color="#777" result="flood-extrude"></feFlood><feMorphology operator="erode" in="SourceAlpha" radius="1" result="erode"></feMorphology><feConvolveMatrix in="erode" result="shadow" order="11,8" divisor="1" kernelMatrix="0 0 0 1 1 1 1 1 0 0 0 0 0 1 0 0 0 0 0 1 0 0 0 0 1 0 0 0 0 0 1 0 0 0 0 1 0 0 0 0 0 1 0 0 0 0 1 0 0 0 0 0 1 0 0 0 0 0 1 0 0 0 1 0 0 0 0 0 0 1 1 0 1 1 0 0 0 0 0 0 0 0 1 0 0 0 0 0"></feConvolveMatrix><feOffset dx="0" dy="4" in="shadow" result="offset"></feOffset><feGaussianBlur in="offset" stdDeviation="0.2" result="blur"></feGaussianBlur><feComposite operator="in" in="flood-extrude" in2="blur" result="extrude"></feComposite><feMorphology operator="erode" in="SourceAlpha" radius="1" result="erode2"></feMorphology><feConvolveMatrix in="erode2" result="out" order="4,4" divisor="1" kernelMatrix="0 1 1 0 1 0 0 1 1 0 0 1 0 1 1 0 "></feConvolveMatrix><feComposite operator="in" in="flood-surface" in2="out" result="text"></feComposite><feMerge><feMergeNode in="extrude"></feMergeNode><feMergeNode in="text"></feMergeNode></feMerge></filter></defs><g filter="url(#editing-raise)"><g transform="matrix(1.2,0,0,1.8,-52.7,-663.9)"><path d="M -4.7 426.8 L -5.6 424.2 L -5.6 424.2 Q -8.9 427.5 -14.9 427.5 L -14.9 427.5 L -14.9 427.5 Q -18.4 427.5 -21.5 426.1 L -21.5 426.1 L -21.5 426.1 Q -24.6 424.8 -26.5 421.9 L -26.5 421.9 L -26.5 421.9 Q -28.4 419 -28.4 414.7 L -28.4 414.7 L -28.4 394.6 L -28.4 394.6 Q -28.4 390.1 -26.9 387.4 L -26.9 387.4 L -26.9 387.4 Q -25.5 384.7 -22.8 383 L -22.8 383 L -22.8 383 Q -20 381.4 -15.9 381.4 L -15.9 381.4 L -15.9 381.4 Q -10.9 381.4 -6.9 383.6 L -6.9 383.6 L -7.9 386 L -7.9 386 Q -11.5 384.6 -14.8 384.6 L -14.8 384.6 L -14.8 384.6 Q -18.7 384.6 -21.7 386.6 L -21.7 386.6 L -21.7 386.6 Q -24.8 388.5 -24.8 394 L -24.8 394 L -24.8 414.8 L -24.8 414.8 Q -24.8 419.1 -22 421.6 L -22 421.6 L -22 421.6 Q -19.2 424 -14.9 424 L -14.9 424 L -14.9 424 Q -10.6 424 -8 421.5 L -8 421.5 L -8 421.5 Q -5.5 419 -5.5 414.9 L -5.5 414.9 L -5.5 411.1 L -9.7 411.1 L -10.9 407.6 L -2.1 407.6 L -2.1 426.8 L -4.7 426.8 Z M 28.9 426.8 L 28.9 426.8 Q 21.9 427.5 18.9 427.5 L 18.9 427.5 L 18.9 427.5 Q 12.1 427.5 8.2 425 L 8.2 425 L 8.2 425 Q 4.2 422.5 4.2 416 L 4.2 416 L 4.2 410.7 L 4.2 410.7 Q 4.2 404.4 8.6 402.2 L 8.6 402.2 L 8.6 402.2 Q 10.7 401.1 14 401.1 L 14 401.1 L 14 401.1 Q 17 401.1 20.1 402.1 L 20.1 402.1 L 20.1 402.1 Q 23.2 403.1 25.3 404.7 L 25.3 404.7 L 25.3 404.7 Q 25.3 401.2 23.2 399.1 L 23.2 399.1 L 23.2 399.1 Q 21.2 397 15.3 397 L 15.3 397 L 15.5 394.2 L 15.5 394.2 Q 21.7 394.2 24.6 396.2 L 24.6 396.2 L 24.6 396.2 Q 27.5 398.1 28.2 400.8 L 28.2 400.8 L 28.2 400.8 Q 28.9 403.5 28.9 407.7 L 28.9 407.7 L 28.9 426.8 Z M 25.3 407.4 L 25.3 407.4 Q 22.6 406.2 19.7 405.3 L 19.7 405.3 L 19.7 405.3 Q 16.7 404.4 14.2 404.4 L 14.2 404.4 L 14.2 404.4 Q 7.7 404.4 7.7 410.9 L 7.7 410.9 L 7.7 416.4 L 7.7 416.4 Q 7.7 420.6 10.6 422.5 L 10.6 422.5 L 10.6 422.5 Q 13.5 424.4 18.8 424.4 L 18.8 424.4 L 18.8 424.4 Q 21.6 424.4 25.3 423.9 L 25.3 423.9 L 25.3 407.4 Z M 36.1 426.8 L 36.1 382 L 39.7 382 L 39.7 426.8 L 36.1 426.8 Z M 68.5 424.6 L 68.5 424.6 Q 66.2 426 63.3 426.8 L 63.3 426.8 L 63.3 426.8 Q 60.3 427.6 57.4 427.6 L 57.4 427.6 L 57.4 427.6 Q 52.7 427.6 49.9 425.2 L 49.9 425.2 L 49.9 425.2 Q 47.1 422.9 47.1 418.2 L 47.1 418.2 L 47.1 405.1 L 47.1 405.1 Q 47.1 399.9 50.3 397.1 L 50.3 397.1 L 50.3 397.1 Q 53.6 394.2 58.9 394.2 L 58.9 394.2 L 58.9 394.2 Q 64.2 394.2 67.2 397 L 67.2 397 L 67.2 397 Q 70.1 399.9 70.1 404.9 L 70.1 404.9 L 70.1 413.2 L 50.7 414.3 L 50.7 418.2 L 50.7 418.2 Q 50.7 421.3 52.7 422.8 L 52.7 422.8 L 52.7 422.8 Q 54.6 424.4 57.8 424.4 L 57.8 424.4 L 57.8 424.4 Q 62.3 424.4 67.1 421.8 L 67.1 421.8 L 68.5 424.6 Z M 66.5 404.5 L 66.5 404.5 Q 66.5 400.5 64.1 398.9 L 64.1 398.9 L 64.1 398.9 Q 61.6 397.2 58.8 397.2 L 58.8 397.2 L 58.8 397.2 Q 55.3 397.2 53 399.2 L 53 399.2 L 53 399.2 Q 50.7 401.1 50.7 405.2 L 50.7 405.2 L 50.7 410.8 L 66.5 410 L 66.5 404.5 Z M 76.5 426.8 L 76.5 394.8 L 80.1 394.8 L 79.9 397 L 79.9 397 Q 82.9 394.2 87.8 394.2 L 87.8 394.2 L 87.8 394.2 Q 89.5 394.2 92.5 394.8 L 92.5 394.8 L 91.6 398 L 91.6 398 Q 89.5 397.4 87.3 397.4 L 87.3 397.4 L 87.3 397.4 Q 84.3 397.4 82.2 398.5 L 82.2 398.5 L 82.2 398.5 Q 80.1 399.6 80.1 401.7 L 80.1 401.7 L 80.1 426.8 L 76.5 426.8 Z M 101.1 385.7 L 101.1 385.7 Q 100.3 385.7 99.6 385 L 99.6 385 L 99.6 385 Q 98.9 384.3 98.9 383.5 L 98.9 383.5 L 98.9 383.5 Q 98.9 382.7 99.6 382 L 99.6 382 L 99.6 382 Q 100.2 381.4 101.1 381.4 L 101.1 381.4 L 101.1 381.4 Q 102 381.4 102.6 382 L 102.6 382 L 102.6 382 Q 103.2 382.6 103.2 383.5 L 103.2 383.5 L 103.2 383.5 Q 103.2 384.4 102.6 385 L 102.6 385 L 102.6 385 Q 101.9 385.7 101.1 385.7 L 101.1 385.7 Z M 99.3 426.8 L 99.3 394.8 L 102.8 394.8 L 102.8 426.8 L 99.3 426.8 Z M 135.3 426.8 L 135.3 426.8 Q 128.4 427.5 125.4 427.5 L 125.4 427.5 L 125.4 427.5 Q 118.6 427.5 114.7 425 L 114.7 425 L 114.7 425 Q 110.7 422.5 110.7 416 L 110.7 416 L 110.7 410.7 L 110.7 410.7 Q 110.7 404.4 115.1 402.2 L 115.1 402.2 L 115.1 402.2 Q 117.2 401.1 120.5 401.1 L 120.5 401.1 L 120.5 401.1 Q 123.5 401.1 126.6 402.1 L 126.6 402.1 L 126.6 402.1 Q 129.7 403.1 131.8 404.7 L 131.8 404.7 L 131.8 404.7 Q 131.8 401.2 129.7 399.1 L 129.7 399.1 L 129.7 399.1 Q 127.7 397 121.8 397 L 121.8 397 L 122 394.2 L 122 394.2 Q 128.2 394.2 131.1 396.2 L 131.1 396.2 L 131.1 396.2 Q 134 398.1 134.7 400.8 L 134.7 400.8 L 134.7 400.8 Q 135.3 403.5 135.3 407.7 L 135.3 407.7 L 135.3 426.8 Z M 131.8 407.4 L 131.8 407.4 Q 129.1 406.2 126.2 405.3 L 126.2 405.3 L 126.2 405.3 Q 123.2 404.4 120.7 404.4 L 120.7 404.4 L 120.7 404.4 Q 114.2 404.4 114.2 410.9 L 114.2 410.9 L 114.2 416.4 L 114.2 416.4 Q 114.2 420.6 117.1 422.5 L 117.1 422.5 L 117.1 422.5 Q 120 424.4 125.3 424.4 L 125.3 424.4 L 125.3 424.4 Q 128.1 424.4 131.8 423.9 L 131.8 423.9 L 131.8 407.4 Z M 160.4 404.7 L 160.4 404.7 Q 160.4 398 165.9 395.5 L 165.9 395.5 L 165.9 395.5 Q 168.5 394.2 172.1 394.2 L 172.1 394.2 L 172.1 394.2 Q 174.5 394.2 176.7 394.8 L 176.7 394.8 L 176.7 394.8 Q 178.9 395.4 180.5 396.5 L 180.5 396.5 L 180.5 382 L 184.1 382 L 184.1 426.8 L 180.5 427.1 L 180.5 427.1 Q 176.4 427.6 174 427.6 L 174 427.6 L 174 427.6 Q 171.6 427.6 169.6 427.1 L 169.6 427.1 L 169.6 427.1 Q 167.5 426.7 165.4 425.7 L 165.4 425.7 L 165.4 425.7 Q 163.1 424.5 161.8 422.3 L 161.8 422.3 L 161.8 422.3 Q 160.4 420 160.4 416.8 L 160.4 416.8 L 160.4 404.7 Z M 180.5 399.6 L 180.5 399.6 Q 178.7 398.7 176.5 398 L 176.5 398 L 176.5 398 Q 174.3 397.4 172.1 397.4 L 172.1 397.4 L 172.1 397.4 Q 168.5 397.4 166.2 399.2 L 166.2 399.2 L 166.2 399.2 Q 164 401 164 404.9 L 164 404.9 L 164 416.8 L 164 416.8 Q 164 424.3 174.3 424.3 L 174.3 424.3 L 174.3 424.3 Q 176.7 424.3 180.5 423.7 L 180.5 423.7 L 180.5 399.6 Z M 209.8 424.6 L 209.8 424.6 Q 207.5 426 204.6 426.8 L 204.6 426.8 L 204.6 426.8 Q 201.7 427.6 198.7 427.6 L 198.7 427.6 L 198.7 427.6 Q 194 427.6 191.2 425.2 L 191.2 425.2 L 191.2 425.2 Q 188.4 422.9 188.4 418.2 L 188.4 418.2 L 188.4 405.1 L 188.4 405.1 Q 188.4 399.9 191.6 397.1 L 191.6 397.1 L 191.6 397.1 Q 194.9 394.2 200.2 394.2 L 200.2 394.2 L 200.2 394.2 Q 205.5 394.2 208.5 397 L 208.5 397 L 208.5 397 Q 211.4 399.9 211.4 404.9 L 211.4 404.9 L 211.4 413.2 L 192 414.3 L 192 418.2 L 192 418.2 Q 192 421.3 194 422.8 L 194 422.8 L 194 422.8 Q 196 424.4 199.2 424.4 L 199.2 424.4 L 199.2 424.4 Q 203.6 424.4 208.4 421.8 L 208.4 421.8 L 209.8 424.6 Z M 207.9 404.5 L 207.9 404.5 Q 207.9 400.5 205.4 398.9 L 205.4 398.9 L 205.4 398.9 Q 202.9 397.2 200.1 397.2 L 200.1 397.2 L 200.1 397.2 Q 196.6 397.2 194.3 399.2 L 194.3 399.2 L 194.3 399.2 Q 192 401.1 192 405.2 L 192 405.2 L 192 410.8 L 207.9 410 L 207.9 404.5 Z M 238.9 385.7 L 238.9 385.7 Q 238.1 385.7 237.4 385 L 237.4 385 L 237.4 385 Q 236.7 384.3 236.7 383.5 L 236.7 383.5 L 236.7 383.5 Q 236.7 382.7 237.4 382 L 237.4 382 L 237.4 382 Q 238 381.4 238.9 381.4 L 238.9 381.4 L 238.9 381.4 Q 239.8 381.4 240.4 382 L 240.4 382 L 240.4 382 Q 241 382.6 241 383.5 L 241 383.5 L 241 383.5 Q 241 384.4 240.4 385 L 240.4 385 L 240.4 385 Q 239.7 385.7 238.9 385.7 L 238.9 385.7 Z M 237 426.8 L 237 394.8 L 240.6 394.8 L 240.6 426.8 L 237 426.8 Z M 287.5 426.8 L 287.5 404.9 L 287.5 404.9 Q 287.5 401 285.5 399.2 L 285.5 399.2 L 285.5 399.2 Q 283.5 397.4 280.3 397.4 L 280.3 397.4 L 280.3 397.4 Q 277.8 397.4 274.7 398.5 L 274.7 398.5 L 272.4 399.7 L 272.4 399.7 Q 273.5 401.9 273.5 404.7 L 273.5 404.7 L 273.5 426.8 L 269.9 426.8 L 269.9 404.9 L 269.9 404.9 Q 269.9 401 267.9 399.2 L 267.9 399.2 L 267.9 399.2 Q 265.9 397.4 262.6 397.4 L 262.6 397.4 L 262.6 397.4 Q 260.7 397.4 258.5 398 L 258.5 398 L 258.5 398 Q 256.4 398.7 254.7 399.6 L 254.7 399.6 L 254.7 426.8 L 251.1 426.8 L 251.1 394.8 L 254.7 394.8 L 254.4 396.8 L 254.4 396.8 Q 258.6 394.3 263 394.3 L 263 394.3 L 263 394.3 Q 265.3 394.3 267.3 395.1 L 267.3 395.1 L 267.3 395.1 Q 269.4 395.8 270.8 397.3 L 270.8 397.3 L 270.8 397.3 Q 271.7 396.8 273.5 395.9 L 273.5 395.9 L 273.5 395.9 Q 277.2 394.2 280.8 394.2 L 280.8 394.2 L 280.8 394.2 Q 285.3 394.2 288.2 397 L 288.2 397 L 288.2 397 Q 291.1 399.7 291.1 404.7 L 291.1 404.7 L 291.1 426.8 L 287.5 426.8 Z M 320.2 426.8 L 320.2 426.8 Q 313.3 427.5 310.2 427.5 L 310.2 427.5 L 310.2 427.5 Q 303.5 427.5 299.5 425 L 299.5 425 L 299.5 425 Q 295.5 422.5 295.5 416 L 295.5 416 L 295.5 410.7 L 295.5 410.7 Q 295.5 404.4 300 402.2 L 300 402.2 L 300 402.2 Q 302.1 401.1 305.3 401.1 L 305.3 401.1 L 305.3 401.1 Q 308.3 401.1 311.4 402.1 L 311.4 402.1 L 311.4 402.1 Q 314.5 403.1 316.6 404.7 L 316.6 404.7 L 316.6 404.7 Q 316.6 401.2 314.5 399.1 L 314.5 399.1 L 314.5 399.1 Q 312.5 397 306.7 397 L 306.7 397 L 306.9 394.2 L 306.9 394.2 Q 313 394.2 315.9 396.2 L 315.9 396.2 L 315.9 396.2 Q 318.8 398.1 319.5 400.8 L 319.5 400.8 L 319.5 400.8 Q 320.2 403.5 320.2 407.7 L 320.2 407.7 L 320.2 426.8 Z M 316.6 407.4 L 316.6 407.4 Q 314 406.2 311 405.3 L 311 405.3 L 311 405.3 Q 308 404.4 305.5 404.4 L 305.5 404.4 L 305.5 404.4 Q 299.1 404.4 299.1 410.9 L 299.1 410.9 L 299.1 416.4 L 299.1 416.4 Q 299.1 420.6 301.9 422.5 L 301.9 422.5 L 301.9 422.5 Q 304.8 424.4 310.1 424.4 L 310.1 424.4 L 310.1 424.4 Q 312.9 424.4 316.6 423.9 L 316.6 423.9 L 316.6 407.4 Z M 341.2 437.5 L 341.2 437.5 Q 345.4 435.9 345.4 430.8 L 345.4 430.8 L 345.4 422.9 L 345.4 422.9 Q 342.7 427.6 336.8 427.6 L 336.8 427.6 L 336.8 427.6 Q 331.1 427.6 328 424.5 L 328 424.5 L 328 424.5 Q 324.9 421.4 324.9 415.6 L 324.9 415.6 L 324.9 406 L 324.9 406 Q 324.9 400.4 328.1 397.3 L 328.1 397.3 L 328.1 397.3 Q 331.4 394.2 337 394.2 L 337 394.2 L 337 394.2 Q 343 394.2 345.7 398.5 L 345.7 398.5 L 345.4 394.8 L 349 394.8 L 349 430.9 L 349 430.9 Q 349 434.8 347.4 436.9 L 347.4 436.9 L 347.4 436.9 Q 345.8 439.1 342.1 440.3 L 342.1 440.3 L 341.2 437.5 Z M 345.4 405.3 L 345.4 405.3 Q 345.4 401.3 342.8 399.4 L 342.8 399.4 L 342.8 399.4 Q 340.3 397.4 336.8 397.4 L 336.8 397.4 L 336.8 397.4 Q 333.4 397.4 330.9 399.5 L 330.9 399.5 L 330.9 399.5 Q 328.4 401.6 328.4 406.3 L 328.4 406.3 L 328.4 416.1 L 328.4 416.1 Q 328.4 420.2 330.7 422.2 L 330.7 422.2 L 330.7 422.2 Q 333 424.3 336.8 424.3 L 336.8 424.3 L 336.8 424.3 Q 340.3 424.3 342.9 422 L 342.9 422 L 342.9 422 Q 345.4 419.8 345.4 415.7 L 345.4 415.7 L 345.4 405.3 Z M 374.8 424.6 L 374.8 424.6 Q 372.5 426 369.6 426.8 L 369.6 426.8 L 369.6 426.8 Q 366.6 427.6 363.7 427.6 L 363.7 427.6 L 363.7 427.6 Q 359 427.6 356.2 425.2 L 356.2 425.2 L 356.2 425.2 Q 353.4 422.9 353.4 418.2 L 353.4 418.2 L 353.4 405.1 L 353.4 405.1 Q 353.4 399.9 356.6 397.1 L 356.6 397.1 L 356.6 397.1 Q 359.9 394.2 365.2 394.2 L 365.2 394.2 L 365.2 394.2 Q 370.5 394.2 373.5 397 L 373.5 397 L 373.5 397 Q 376.4 399.9 376.4 404.9 L 376.4 404.9 L 376.4 413.2 L 357 414.3 L 357 418.2 L 357 418.2 Q 357 421.3 359 422.8 L 359 422.8 L 359 422.8 Q 360.9 424.4 364.1 424.4 L 364.1 424.4 L 364.1 424.4 Q 368.6 424.4 373.4 421.8 L 373.4 421.8 L 374.8 424.6 Z M 372.9 404.5 L 372.9 404.5 Q 372.9 400.5 370.4 398.9 L 370.4 398.9 L 370.4 398.9 Q 367.9 397.2 365.1 397.2 L 365.1 397.2 L 365.1 397.2 Q 361.6 397.2 359.3 399.2 L 359.3 399.2 L 359.3 399.2 Q 357 401.1 357 405.2 L 357 405.2 L 357 410.8 L 372.9 410 L 372.9 404.5 Z M 403.1 426.8 L 403.1 404.9 L 403.1 404.9 Q 403.1 401 400.9 399.2 L 400.9 399.2 L 400.9 399.2 Q 398.6 397.4 395 397.4 L 395 397.4 L 395 397.4 Q 392.8 397.4 390.6 398 L 390.6 398 L 390.6 398 Q 388.3 398.7 386.6 399.6 L 386.6 399.6 L 386.6 426.8 L 383 426.8 L 383 394.8 L 386.6 394.8 L 386.4 396.9 L 386.4 396.9 Q 387.9 395.6 390.3 394.9 L 390.3 394.9 L 390.3 394.9 Q 392.6 394.2 395.2 394.2 L 395.2 394.2 L 395.2 394.2 Q 398.7 394.2 401.2 395.4 L 401.2 395.4 L 401.2 395.4 Q 403.8 396.5 405.2 398.8 L 405.2 398.8 L 405.2 398.8 Q 406.6 401.2 406.6 404.7 L 406.6 404.7 L 406.6 426.8 L 403.1 426.8 Z M 434.6 424.6 L 434.6 424.6 Q 432.3 426 429.4 426.8 L 429.4 426.8 L 429.4 426.8 Q 426.4 427.6 423.5 427.6 L 423.5 427.6 L 423.5 427.6 Q 418.7 427.6 416 425.2 L 416 425.2 L 416 425.2 Q 413.2 422.9 413.2 418.2 L 413.2 418.2 L 413.2 405.1 L 413.2 405.1 Q 413.2 399.9 416.4 397.1 L 416.4 397.1 L 416.4 397.1 Q 419.6 394.2 424.9 394.2 L 424.9 394.2 L 424.9 394.2 Q 430.3 394.2 433.2 397 L 433.2 397 L 433.2 397 Q 436.2 399.9 436.2 404.9 L 436.2 404.9 L 436.2 413.2 L 416.8 414.3 L 416.8 418.2 L 416.8 418.2 Q 416.8 421.3 418.7 422.8 L 418.7 422.8 L 418.7 422.8 Q 420.7 424.4 423.9 424.4 L 423.9 424.4 L 423.9 424.4 Q 428.4 424.4 433.2 421.8 L 433.2 421.8 L 434.6 424.6 Z M 432.6 404.5 L 432.6 404.5 Q 432.6 400.5 430.1 398.9 L 430.1 398.9 L 430.1 398.9 Q 427.6 397.2 424.9 397.2 L 424.9 397.2 L 424.9 397.2 Q 421.4 397.2 419.1 399.2 L 419.1 399.2 L 419.1 399.2 Q 416.8 401.1 416.8 405.2 L 416.8 405.2 L 416.8 410.8 L 432.6 410 L 432.6 404.5 Z M 444.4 418.7 L 444.4 418.7 Q 444.8 421.6 447.3 423 L 447.3 423 L 447.3 423 Q 449.8 424.4 452.9 424.4 L 452.9 424.4 L 452.9 424.4 Q 455.7 424.4 458.1 423.1 L 458.1 423.1 L 458.1 423.1 Q 460.5 421.8 460.5 418.9 L 460.5 418.9 L 460.5 418.9 Q 460.5 417 459.3 415.7 L 459.3 415.7 L 459.3 415.7 Q 458.2 414.5 456.6 413.7 L 456.6 413.7 L 456.6 413.7 Q 454.9 412.9 452.1 412 L 452.1 412 L 452.1 412 Q 448.9 411 447 410.1 L 447 410.1 L 447 410.1 Q 445 409.2 443.5 407.6 L 443.5 407.6 L 443.5 407.6 Q 442 406 441.8 403.5 L 441.8 403.5 L 441.7 402.7 L 441.7 402.7 Q 441.7 400.6 442.9 398.6 L 442.9 398.6 L 442.9 398.6 Q 444.1 396.5 446.5 395.3 L 446.5 395.3 L 446.5 395.3 Q 449 394 452.7 394 L 452.7 394 L 452.7 394 Q 454.8 394 456.3 394.4 L 456.3 394.4 L 456.3 394.4 Q 457.9 394.8 458.8 395.3 L 458.8 395.3 L 458.8 395.3 Q 459.7 395.7 459.9 395.8 L 459.9 395.8 L 458.7 398.8 L 458.7 398.8 Q 458.5 398.7 457.7 398.3 L 457.7 398.3 L 457.7 398.3 Q 457 397.9 455.7 397.5 L 455.7 397.5 L 455.7 397.5 Q 454.3 397.1 452.7 397.1 L 452.7 397.1 L 452.7 397.1 Q 449.7 397.1 447.5 398.6 L 447.5 398.6 L 447.5 398.6 Q 445.3 400 445.3 402.6 L 445.3 402.6 L 445.3 402.6 Q 445.3 405 447.3 406.3 L 447.3 406.3 L 447.3 406.3 Q 449.3 407.6 453.4 408.8 L 453.4 408.8 L 453.4 408.8 Q 456.8 410 458.9 411 L 458.9 411 L 458.9 411 Q 461 412 462.5 413.9 L 462.5 413.9 L 462.5 413.9 Q 464.1 415.8 464.1 418.8 L 464.1 418.8 L 464.1 418.8 Q 464.1 422.7 461.2 425.2 L 461.2 425.2 L 461.2 425.2 Q 458.4 427.8 452.9 427.8 L 452.9 427.8 L 452.9 427.8 Q 449.2 427.8 446.5 426.5 L 446.5 426.5 L 446.5 426.5 Q 443.9 425.3 442.5 423.2 L 442.5 423.2 L 442.5 423.2 Q 441.1 421.2 441 418.7 L 441 418.7 L 444.4 418.7 Z"></path></g></g><style>text {
  font-size: 64px;
  font-family: Arial Black;
  dominant-baseline: central;
  text-anchor: middle;
}</style></svg>